<?xml version="1.0" standalone="no"?>
<!DOCTYPE svg PUBLIC "-//W3C//DTD SVG 20010904//EN"
 "http://www.w3.org/TR/2001/REC-SVG-20010904/DTD/svg10.dtd">
<svg version="1.0" xmlns="http://www.w3.org/2000/svg"
 width="480.000000pt" height="238.000000pt" viewBox="0 0 480.000000 238.000000"
 preserveAspectRatio="xMidYMid meet">

<g transform="translate(0.000000,238.000000) scale(0.100000,-0.100000)"
fill="#000000" stroke="none">
<path d="M3480 2319 c-328 -39 -608 -205 -906 -540 -61 -68 -133 -148 -160
-178 l-49 -53 -55 69 c-94 118 -221 252 -310 326 -71 58 -86 67 -89 51 -4 -24
-31 -55 -41 -49 -5 3 -7 -3 -6 -12 2 -9 8 -19 14 -21 7 -2 10 3 6 12 -4 10 -1
16 10 16 10 0 13 -5 9 -16 -5 -14 -3 -15 15 -5 38 20 66 -5 51 -46 -8 -21 -41
-45 -56 -41 -15 4 -56 -14 -47 -21 23 -16 32 -47 20 -69 -7 -13 -15 -19 -19
-16 -4 4 -7 0 -7 -9 0 -9 5 -19 10 -22 18 -11 11 -21 -17 -23 -15 -1 -32 -7
-37 -12 -18 -18 -27 -11 -14 10 7 11 19 18 26 15 9 -3 10 0 2 15 -5 10 -14 21
-19 24 -14 9 -31 -18 -26 -42 2 -12 0 -24 -6 -27 -11 -7 22 -75 46 -95 15 -12
19 -12 31 5 10 14 14 15 15 4 1 -8 4 -1 8 15 3 16 12 31 20 34 11 4 13 -2 8
-27 -4 -17 -3 -30 1 -28 8 2 12 -7 12 -25 0 -9 -4 -8 -10 2 -8 12 -10 11 -10
-7 0 -14 6 -23 15 -23 8 0 15 -7 15 -15 0 -8 -5 -15 -11 -15 -8 0 -8 -5 1 -15
7 -8 18 -15 24 -15 7 0 18 -15 25 -33 10 -24 20 -33 39 -35 34 -3 36 -6 23
-44 -10 -28 -9 -35 5 -45 9 -6 24 -26 34 -45 45 -81 45 -79 32 -96 -7 -9 -15
-24 -18 -32 -3 -8 -11 -26 -17 -40 -6 -14 -10 -29 -8 -33 1 -5 -4 -7 -11 -5
-15 5 -78 -53 -78 -73 0 -8 -16 -24 -36 -37 -20 -13 -33 -29 -31 -36 3 -8 -1
-13 -10 -12 -8 0 -22 -10 -31 -24 -15 -21 -15 -23 -1 -18 11 4 15 0 15 -16 -1
-12 4 -20 12 -18 17 3 15 -28 -4 -49 -9 -10 -23 -15 -32 -11 -14 5 -15 3 -4
-10 8 -10 10 -26 6 -42 -5 -23 -3 -26 21 -26 23 0 25 -3 16 -14 -9 -10 -9 -16
-1 -21 15 -9 -7 -35 -29 -35 -12 0 -13 2 -3 9 11 7 10 10 -3 15 -23 8 -27 8
-20 -4 3 -5 2 -18 -3 -27 -11 -20 2 -63 18 -63 6 0 20 9 32 20 17 16 23 17 32
6 19 -23 44 -25 69 -6 14 11 32 17 45 14 13 -4 27 1 38 15 10 12 24 21 30 21
15 0 152 138 202 203 20 26 41 47 47 47 14 0 49 -38 110 -120 74 -100 311
-329 422 -408 208 -149 405 -219 640 -229 243 -10 445 45 642 175 82 54 212
182 271 268 54 77 124 217 135 269 4 17 13 46 20 66 42 112 63 363 31 381 -9
5 -16 19 -16 31 0 16 3 18 9 9 7 -11 10 -10 15 3 10 27 7 84 -9 175 -77 436
-370 748 -787 835 -88 19 -250 25 -348 14z m238 -405 c180 -36 331 -152 411
-314 64 -132 83 -218 87 -404 2 -88 0 -164 -5 -170 -5 -6 -19 -40 -31 -76
-158 -473 -675 -603 -1099 -276 -123 95 -340 325 -493 523 -21 27 369 449 512
556 122 90 254 153 360 170 60 10 187 6 258 -9z m-1088 -130 c0 -8 -4 -12 -10
-9 -5 3 -10 10 -10 16 0 5 5 9 10 9 6 0 10 -7 10 -16z m-809 -167 c-1 -12 -15
-9 -19 4 -3 6 1 10 8 8 6 -3 11 -8 11 -12z m185 -25 c15 -9 -1 -56 -16 -47
-15 9 -12 27 3 19 10 -6 10 -4 0 7 -22 23 -13 38 13 21z m464 -12 c0 -5 -4
-10 -10 -10 -5 0 -10 5 -10 10 0 6 5 10 10 10 6 0 10 -4 10 -10z m-470 -62 c0
-7 -4 -17 -8 -23 -10 -15 -30 -16 -28 -2 3 18 16 37 27 37 5 0 9 -6 9 -12z
m27 -30 c-3 -8 -6 -5 -6 6 -1 11 2 17 5 13 3 -3 4 -12 1 -19z m-20 -20 c-3 -8
-6 -5 -6 6 -1 11 2 17 5 13 3 -3 4 -12 1 -19z m68 -138 c3 -5 1 -10 -4 -10 -6
0 -11 5 -11 10 0 6 2 10 4 10 3 0 8 -4 11 -10z m55 -66 c0 -17 -11 -18 -33 -1
-16 11 -15 12 8 13 15 1 25 -3 25 -12z m290 -98 c0 -3 -4 -8 -10 -11 -5 -3
-10 -1 -10 4 0 6 5 11 10 11 6 0 10 -2 10 -4z m77 -70 c-4 -9 -11 -16 -17 -16
-17 0 -24 31 -9 41 18 11 34 -5 26 -25z m143 -21 c0 -8 -2 -15 -4 -15 -2 0 -6
7 -10 15 -3 8 -1 15 4 15 6 0 10 -7 10 -15z m-414 -44 c-4 -5 0 -11 6 -14 7
-2 10 -8 5 -12 -10 -12 -31 11 -23 24 4 6 9 11 12 11 3 0 3 -4 0 -9z m-229
-73 c-3 -8 -6 -5 -6 6 -1 11 2 17 5 13 3 -3 4 -12 1 -19z m243 8 c0 -7 -6 -19
-14 -25 -11 -9 -12 -6 -8 14 5 26 22 35 22 11z m-67 -74 c-5 -22 -23 -31 -23
-12 0 10 23 40 27 36 1 -1 0 -12 -4 -24z m535 -62 c15 -24 6 -50 -18 -50 -25
0 -31 12 -24 48 7 33 22 34 42 2z m-708 -31 c0 -11 -27 -12 -34 0 -3 4 -3 11
0 14 8 8 34 -3 34 -14z m45 5 c0 -5 -8 -10 -17 -12 -11 -2 -18 3 -18 11 0 9 8
14 18 13 9 -2 17 -7 17 -12z m60 -24 c10 -31 -11 -52 -36 -37 -20 12 -26 37
-9 37 6 0 10 -6 10 -12 0 -9 3 -8 9 2 6 8 7 18 5 22 -3 4 -1 8 5 8 5 0 13 -9
16 -20z m-158 -26 c-9 -9 -28 6 -21 18 4 6 10 6 17 -1 6 -6 8 -13 4 -17z m843
-273 c0 -10 -50 -25 -57 -17 -3 2 -2 9 2 15 8 13 55 15 55 2z"/>
<path d="M710 2246 c-405 -144 -655 -516 -673 -1001 -9 -267 51 -495 185 -697
224 -336 611 -505 1025 -447 114 16 220 52 248 84 17 20 30 26 48 23 23 -4 24
-3 17 24 -5 15 -6 28 -3 28 3 0 0 7 -7 15 -10 12 -10 18 1 32 8 9 9 14 3 10
-7 -4 -15 0 -18 8 -6 18 17 31 34 20 7 -4 10 -20 8 -34 -4 -30 8 -46 48 -61
42 -16 108 32 153 113 23 41 29 93 10 81 -8 -5 -10 3 -7 25 3 18 0 31 -6 32
-6 0 -19 2 -29 4 -10 2 -22 -6 -28 -18 -11 -20 -12 -20 -25 -2 -12 17 -14 17
-14 2 0 -19 -20 -24 -20 -4 0 6 -8 0 -18 -15 -9 -16 -23 -28 -31 -28 -12 0
-12 -3 -3 -12 16 -16 15 -25 -3 -25 -8 0 -15 5 -15 11 0 6 -5 4 -11 -4 -7 -11
-9 0 -7 39 2 42 -1 56 -15 65 -21 13 -37 -5 -37 -44 0 -33 -10 -47 -35 -52
-15 -2 -20 2 -18 17 1 11 -2 22 -6 25 -12 8 -32 72 -21 65 6 -4 10 0 10 8 0
10 -7 13 -19 10 -12 -3 -17 -11 -14 -19 6 -16 -13 -19 -22 -4 -4 6 -11 8 -16
5 -5 -4 -55 -14 -112 -23 -353 -59 -663 123 -775 453 -25 75 -27 92 -27 250 1
133 5 185 19 240 25 95 90 225 145 290 46 52 180 150 234 170 16 6 25 14 21
18 -4 4 -2 7 6 7 10 0 10 3 -1 16 -11 14 -10 18 6 30 10 8 14 14 7 14 -6 0
-24 -14 -40 -31 -26 -28 -34 -31 -65 -25 -36 7 -74 47 -62 66 5 9 -15 15 -37
11 -13 -2 -9 16 7 29 11 10 12 16 4 26 -8 10 -7 17 4 29 18 18 37 20 37 4 0
-6 7 -8 15 -5 8 3 23 9 32 13 12 5 15 2 10 -10 -4 -11 -1 -17 8 -17 8 0 18 -7
23 -16 8 -14 13 -14 32 -4 22 12 22 13 4 23 -10 5 -20 11 -22 13 -2 1 5 15 15
30 18 27 17 28 -5 22 -13 -4 -20 -2 -16 3 3 6 0 16 -6 24 -10 11 -10 15 -1 15
7 0 9 5 6 10 -3 6 -2 10 4 10 5 0 11 -6 14 -12 4 -10 7 -10 17 -1 20 19 -16
29 -52 15 -37 -14 -80 0 -72 23 5 11 10 13 19 5 8 -7 17 -4 30 10 18 19 17 20
-6 20 -13 0 -53 -11 -89 -24z m102 -82 c-3 -15 -8 -22 -14 -16 -9 9 -1 42 12
42 4 0 5 -12 2 -26z m-192 -54 c0 -5 -4 -10 -10 -10 -5 0 -10 5 -10 10 0 6 5
10 10 10 6 0 10 -4 10 -10z m1100 -1726 c0 -8 -4 -12 -10 -9 -5 3 -10 10 -10
16 0 5 5 9 10 9 6 0 10 -7 10 -16z m10 -57 c0 -5 -4 -5 -10 -2 -5 3 -10 14
-10 23 0 15 2 15 10 2 5 -8 10 -19 10 -23z m-690 -87 c0 -5 -4 -10 -10 -10 -5
0 -10 5 -10 10 0 6 5 10 10 10 6 0 10 -4 10 -10z"/>
<path d="M1805 500 c-4 -6 -1 -9 6 -8 10 2 13 -11 11 -49 -2 -43 1 -51 13 -47
8 3 17 14 20 25 6 17 23 24 47 20 4 0 5 6 1 15 -4 11 -9 12 -16 5 -13 -13 -37
4 -37 27 0 8 -3 12 -7 9 -3 -4 -12 -2 -19 4 -8 7 -14 7 -19 -1z"/>
</g>
</svg>
